<svg viewBox="0 0 1024 1024" version="1.1" width="16" height="16" class="antv-s2-icon">
    <defs>
        <style type="text/css"></style>
    </defs>
    <path
            d="M441.6 249.6c0 38.4 32 70.4 70.4 70.4s70.4-32 70.4-70.4c0-38.4-32-70.4-70.4-70.4s-70.4 25.6-70.4 70.4z m0 262.4c0 38.4 32 70.4 70.4 70.4s70.4-32 70.4-70.4c0-38.4-32-70.4-70.4-70.4s-70.4 32-70.4 70.4z m0 262.4c0 38.4 32 70.4 70.4 70.4s70.4-32 70.4-70.4c0-38.4-32-70.4-70.4-70.4s-70.4 32-70.4 70.4z"
            fill="currentColor"
            p-id="22217"
    ></path>
</svg>
