<svg
        width="12px"
        height="12px"
        viewBox="0 0 12 12"
        version="1.1"
        xmlns="http://www.w3.org/2000/svg"
        class="antv-s2-icon"
        >
<g stroke="none" fill="none" fill-rule="evenodd">
<g
        transform="translate(-153.000000, -608.000000)"
        fill="currentColor"
>
    <g transform="translate(127.000000, 549.000000)">
        <g transform="translate(24.000000, 57.000000)">
            <g transform="translate(2.000000, 2.000000)">
                <path d="M0.771428571,3.77142857 L3.77142857,3.77142857 L3.77142857,5.65714286 L0.771428571,5.65714286 L0.771428571,3.77142857 Z M0.771428571,6.34285714 L3.77142857,6.34285714 L3.77142857,8.57142857 L0.771428571,8.57142857 L0.771428571,6.34285714 Z M0.771428571,9 L3.77142857,9 L3.77142857,11.2285714 L0.771428571,11.2285714 L0.771428571,9 Z"></path>
                <path d="M0.771428571,9 L0.771428571,11.2285714 L11.2285714,11.2285714 L11.2285714,3.77142857 L0.771428571,3.77142857 L0.771428571,5.65714286 L3.77142857,5.65714286 L3.77142857,3.77142857 L4.54285714,3.77142857 L4.54285714,11.3142857 L3.77142857,11.3142857 L3.77142857,9.08571429 L0.771428571,9.08571429 L0.771428571,9 Z M0.771428571,8.22857143 L3.77142857,8.22857143 L3.77142857,6.34285714 L0.771428571,6.34285714 L0.771428571,8.22857143 L0.771428571,8.22857143 Z M11.2285714,3 L11.2285714,0.771428571 L0.771428571,0.771428571 L0.771428571,3 L11.2285714,3 Z M12,0 L12,12 L0,12 L0,0 L12,0 Z"></path>
            </g>
        </g>
    </g>
</g>
</g>
        </svg>
