<svg
    class="antv-s2-icon"
    width="16px"
    height="16px"
    viewBox="0 0 16 16"
    version="1.1"
    xmlns="http://www.w3.org/2000/svg"
>
    <g
            transform="translate(8.056364, 8.000227) rotate(-270.000000) translate(-8.056364, -8.000227) translate(3.057045, 3.070227)"
            fill="currentColor"
    >
        <path d="M0.482272727,3.55181818 C0.472878788,3.55181818 0.468181818,3.54939394 0.468181818,3.54454545 C0.468181818,3.53969697 0.465757576,3.53727273 0.460909091,3.53727273 L0.396818182,3.53727273 L0.382727273,3.52318182 L0.34,3.52318182 L0.325909091,3.50909091 L0.311818182,3.50909091 L0.297727273,3.495 L0.269090909,3.495 L0.269090909,3.48090909 L0.255,3.48090909 L0.240909091,3.46681818 L0.226818182,3.46681818 L0.226818182,3.45272727 L0.212727273,3.45272727 L0.184090909,3.42409091 L0.17,3.42409091 C0.160606061,3.405 0.151060606,3.39075758 0.141363636,3.38136364 C0.131969697,3.38136364 0.127272727,3.37893939 0.127272727,3.37409091 L0.127272727,3.36681818 L0.113181818,3.35272727 L0.113181818,3.33863636 L0.0990909091,3.33863636 L0.0990909091,3.32454545 L0.085,3.31045455 L0.085,3.30318182 L0.0777272727,3.29590909 L0.0704545455,3.29590909 L0.0704545455,3.28181818 L0.0563636364,3.26772727 L0.0563636364,3.24636364 L0.0490909091,3.23909091 L0.0418181818,3.23909091 L0.0418181818,3.225 C0.0418181818,3.21560606 0.0393939394,3.21090909 0.0345454545,3.21090909 C0.0296969697,3.21090909 0.0272727273,3.20848485 0.0272727273,3.20363636 L0.0272727273,3.15409091 L0.0131818182,3.14 L0.0131818182,2.94090909 L0.0272727273,2.92681818 L0.0272727273,2.88409091 C0.0366666667,2.87469697 0.0413636364,2.86757576 0.0413636364,2.86272727 L0.0413636364,2.84136364 L0.0554545455,2.82727273 L0.0554545455,2.81318182 L0.0695454545,2.79909091 L0.0695454545,2.79181818 L0.0768181818,2.77772727 L0.0840909091,2.77045455 L0.0840909091,2.76318182 L0.0913636364,2.75590909 L0.0986363636,2.74863636 L0.0986363636,2.74136364 L0.112727273,2.72727273 C0.112727273,2.71787879 0.117424242,2.71318182 0.126818182,2.71318182 L0.126818182,2.69909091 L0.140909091,2.69909091 L2.68363636,0.156363636 C2.77848485,0.0521212121 2.89681818,0 3.03863636,0 C3.18045455,0 3.29878788,0.0521212121 3.39363636,0.156363636 C3.49787879,0.260606061 3.55,0.381363636 3.55,0.518636364 C3.55,0.655909091 3.49787879,0.776666667 3.39363636,0.880909091 L1.74590909,2.52863636 L9.48727273,2.52863636 C9.62939394,2.52863636 9.75015152,2.57833333 9.84954545,2.67772727 C9.94893939,2.77712121 9.99863636,2.89787879 9.99863636,3.04 C9.99863636,3.18212121 9.94893939,3.30287879 9.84954545,3.40227273 C9.75015152,3.50166667 9.62939394,3.55136364 9.48727273,3.55136364 L0.481363636,3.55136364 L0.482272727,3.55181818 Z M9.51636364,6.30727273 C9.52575758,6.30727273 9.53045455,6.30969697 9.53045455,6.31454545 C9.53045455,6.31939394 9.53287879,6.32181818 9.53772727,6.32181818 L9.60181818,6.32181818 L9.61590909,6.33590909 L9.65863636,6.33590909 L9.65863636,6.35 L9.68727273,6.35 L9.70136364,6.36409091 L9.73,6.36409091 L9.73,6.37818182 L9.74409091,6.37818182 L9.75818182,6.39227273 L9.77227273,6.39227273 L9.77227273,6.40636364 L9.78636364,6.40636364 L9.815,6.435 L9.82909091,6.435 C9.83848485,6.45409091 9.8480303,6.46833333 9.85772727,6.47772727 C9.86712121,6.47772727 9.87181818,6.48015152 9.87181818,6.485 L9.87181818,6.49227273 L9.88590909,6.50636364 L9.88590909,6.52045455 L9.9,6.52045455 L9.9,6.53454545 L9.90727273,6.53454545 L9.91454545,6.54181818 L9.91454545,6.55590909 L9.92181818,6.56318182 L9.92909091,6.57045455 L9.92909091,6.57772727 L9.94318182,6.59181818 L9.94318182,6.61318182 L9.95045455,6.62045455 L9.95772727,6.62045455 L9.95772727,6.64909091 L9.965,6.65636364 L9.97227273,6.67045455 L9.97227273,6.70590909 L9.98636364,6.72 L9.98636364,6.91909091 L9.97227273,6.93318182 L9.97227273,6.97590909 L9.95818182,6.99 L9.95818182,7.01863636 L9.94409091,7.03272727 L9.94409091,7.04681818 L9.93,7.06090909 L9.93,7.06818182 L9.92272727,7.08227273 L9.91545455,7.08954545 L9.91545455,7.09681818 L9.90818182,7.10409091 L9.90090909,7.11136364 L9.90090909,7.11863636 L9.88681818,7.13272727 C9.88681818,7.14212121 9.88439394,7.14681818 9.87954545,7.14681818 L9.87227273,7.14681818 L9.87227273,7.16090909 L9.85818182,7.16090909 L9.85090909,7.16818182 L9.84363636,7.18954545 L7.32954545,9.70363636 C7.22530303,9.80787879 7.10212121,9.86 6.96,9.86 C6.81787879,9.86 6.69954545,9.80787879 6.605,9.70363636 C6.50075758,9.60878788 6.44863636,9.49045455 6.44863636,9.34863636 C6.44863636,9.20681818 6.50075758,9.08363636 6.605,8.97909091 L8.25272727,7.33136364 L0.511363636,7.33136364 C0.378636364,7.33136364 0.26030303,7.28166667 0.156363636,7.18227273 C0.0524242424,7.08287879 0.000303030303,6.96212121 4.54747351e-13,6.82 C4.54747351e-13,6.67787879 0.0521212121,6.55712121 0.156363636,6.45772727 C0.260606061,6.35833333 0.378939394,6.30863636 0.511363636,6.30863636 L9.51727273,6.30863636 L9.51636364,6.30727273 Z"></path>
    </g>
</svg>
