<svg
        width="12px"
        height="12px"
        viewBox="0 0 12 12"
        version="1.1"
        xmlns="http://www.w3.org/2000/svg"
        class="antv-s2-icon"
        >
<g stroke="none" fill="none" fill-rule="evenodd">
<g
        transform="translate(-153.000000, -814.000000)"
        fill="currentColor"
        fill-rule="nonzero"
>
    <g transform="translate(127.000000, 549.000000)">
        <g transform="translate(24.000000, 55.000000)">
            <g transform="translate(0.000000, 208.000000)">
                <g transform="translate(2.000000, 2.000000)">
                    <path d="M4.45714286,11.2285714 L11.2285714,11.2285714 L11.2285714,3.77142857 L4.45714286,3.77142857 L4.45714286,11.2285714 Z M3.77142857,11.2285714 L3.77142857,3.77142857 L0.771428571,3.77142857 L0.771428571,11.3142857 L3.77142857,11.3142857 L3.77142857,11.2285714 Z M11.2285714,3 L11.2285714,0.771428571 L0.771428571,0.771428571 L0.771428571,3 L11.2285714,3 Z M12,0 L12,12 L0,12 L0,0 L12,0 Z"></path>
                    <polygon points="0.771428571 0.771428571 11.2285714 0.771428571 11.2285714 3 0.771428571 3"></polygon>
                </g>
            </g>
        </g>
    </g>
</g>
</g>
        </svg>
