<svg
        class="antv-s2-icon"
        viewBox="0 0 1024 1024"
        version="1.1"
        xmlns="http://www.w3.org/2000/svg"
        width="12.6"
        height="12.6"
>
    <path
            d="M511.804 222.338c-57.117 0-105.737 20.061-145.86 60.184-40.122 40.123-60.184 88.569-60.184 145.337 0 56.769 20.062 105.214 60.185 145.337 40.122 40.123 88.742 60.185 145.859 60.185 57.116 0 105.736-20.062 145.859-60.185 40.123-40.123 60.184-88.568 60.184-145.337 0-56.768-20.061-105.214-60.184-145.337-40.123-40.123-88.743-60.184-145.86-60.184z m0 338.619c-36.729 0-68.007-12.925-93.835-38.774-25.827-25.85-38.752-57.127-38.773-93.834-0.022-36.707 12.902-68.16 38.773-94.357 25.872-26.197 57.15-39.285 93.835-39.263 36.685 0.022 67.963 13.11 93.834 39.263 25.871 26.154 38.796 57.606 38.774 94.357-0.022 36.75-12.946 68.028-38.774 93.834-25.828 25.806-57.106 38.73-93.834 38.774z m366.165-295.766c-21.084-42.168-50.327-79.223-87.73-111.165-37.404-31.941-79.898-57.105-127.484-75.491C614.472 60.845 564.155 52 511.804 52c-52.352 0-103.006 8.845-151.963 26.535-46.911 18.364-89.069 43.528-126.472 75.491-37.403 31.964-66.647 69.019-87.731 111.165C123.879 308.71 113 353.923 113 400.835c0 65.95 15.982 132.924 47.945 200.92 26.524 56.441 63.58 112.198 111.165 167.27 62.556 73.435 134.632 138.71 216.227 195.827 6.81 4.765 14.459 7.148 22.945 7.148 8.485 0 16.47-2.383 23.956-7.148 81.595-57.79 153.67-123.067 216.227-195.828 47.608-55.767 84.663-111.524 111.165-167.27 31.963-67.995 47.945-134.969 47.945-200.919 0-46.912-10.88-92.126-32.638-135.644h0.032z m-40.797 136.656c0 55.07-13.6 111.513-40.798 169.326-23.129 49.631-56.452 99.948-99.97 150.95-52.351 61.208-113.885 117.65-184.6 169.326-70.716-51.676-132.25-108.118-184.6-169.326-42.844-51.002-76.167-101.319-99.971-150.95-27.198-57.791-40.797-114.57-40.797-170.338 0-36.032 8.159-70.716 24.478-104.05 16.994-32.638 40.45-61.882 70.368-87.73 30.592-26.525 65.276-47.26 104.05-62.209 40.797-14.97 82.954-22.455 126.472-22.455 43.517 0 85.675 7.485 126.472 22.455 38.752 14.97 73.436 35.706 104.05 62.208 30.593 25.85 54.048 55.093 70.367 87.731 16.32 34.009 24.479 69.03 24.479 105.062z"
            fill="currentColor"
    ></path>
</svg>
