<svg
        class="antv-s2-icon"
        width="16px"
        height="16px"
        viewBox="0 0 24 24"
        version="1.1"
        xmlns="http://www.w3.org/2000/svg"
>
    <path
            d="M18.0047888,16.4055 C18.1082888,16.4055 18.1922888,16.4895 18.1922888,16.593 L18.1922888,17.9055 C18.1922888,18.0090534 18.1083422,18.093 18.0047888,18.093 L9.37978883,18.093 C9.27623544,18.093 9.19228883,18.0090534 9.19228883,17.9055 L9.19228883,16.593 C9.19228883,16.4895 9.27628883,16.4055 9.37978883,16.4055 L18.0047888,16.4055 Z M4.41328883,1.6665 L4.46428883,1.7115 L7.08928883,5.0385 C7.17478883,5.1435 7.12078883,5.2935 7.00528883,5.3325 L6.94228883,5.343 L5.16028883,5.343 L5.16028883,14.25 L6.94228883,14.25 C7.09978883,14.25 7.18828883,14.433 7.08928883,14.5545 L4.46428883,17.88 C4.42872537,17.9249155 4.37457895,17.9511073 4.31728883,17.9511073 C4.25999871,17.9511073 4.20585229,17.9249155 4.17028883,17.88 L1.54528883,14.5545 C1.50119832,14.4981177 1.49305316,14.4215528 1.52429494,14.3571564 C1.55553672,14.2927601 1.62071465,14.2517677 1.69228883,14.2515 L3.47428883,14.2515 L3.47428883,5.343 L1.69228883,5.343 C1.63110128,5.34394015 1.57330492,5.31496201 1.53745415,5.26536844 C1.50160338,5.21577487 1.49220972,5.15180683 1.51228883,5.094 L1.54528883,5.0385 L4.17028883,1.713 C4.22854609,1.63918993 4.33246412,1.61994585 4.41328883,1.668 L4.41328883,1.6665 Z M15.7547888,11.4375 C15.8582888,11.4375 15.9422888,11.5215 15.9422888,11.625 L15.9422888,12.9375 C15.9422888,13.0410534 15.8583422,13.125 15.7547888,13.125 L9.37978883,13.125 C9.33006074,13.125 9.28236938,13.1052456 9.24720631,13.0700825 C9.21204324,13.0349195 9.19228883,12.9872281 9.19228883,12.9375 L9.19228883,11.625 C9.19228883,11.5215 9.27628883,11.4375 9.37978883,11.4375 L15.7547888,11.4375 Z M21.7547888,6.468 C21.8582888,6.468 21.9422888,6.5535 21.9422888,6.6555 L21.9422888,7.968 C21.9422888,8.07155339 21.8583422,8.1555 21.7547888,8.1555 L9.37978883,8.1555 C9.33006074,8.1555 9.28236938,8.13574559 9.24720631,8.10058252 C9.21204324,8.06541945 9.19228883,8.01772809 9.19228883,7.968 L9.19228883,6.6555 C9.19228883,6.5535 9.27628883,6.468 9.37978883,6.468 L21.7547888,6.468 Z M13.5047888,1.5 C13.6082888,1.5 13.6922888,1.584 13.6922888,1.6875 L13.6922888,3 C13.6922888,3.10355339 13.6083422,3.1875 13.5047888,3.1875 L9.37978883,3.1875 C9.33006074,3.1875 9.28236938,3.16774559 9.24720631,3.13258252 C9.21204324,3.09741945 9.19228883,3.04972809 9.19228883,3 L9.19228883,1.6875 C9.19228883,1.584 9.27628883,1.5 9.37978883,1.5 L13.5047888,1.5 Z"
            fill="currentColor"
    ></path>
</svg>
